grf
version=1
nRows=11
nColumns=37
inDegrees=no
endheader
time	ground_force_1_vx	ground_force_1_vy	ground_force_1_vz	ground_force_1_px	ground_force_1_py	ground_force_1_pz	ground_moment_1_mx	ground_moment_1_my	ground_moment_1_mz	ground_force_2_vx	ground_force_2_vy	ground_force_2_vz	ground_force_2_px	ground_force_2_py	ground_force_2_pz	ground_moment_2_mx	ground_moment_2_my	ground_moment_2_mz	ground_force_3_vx	ground_force_3_vy	ground_force_3_vz	ground_force_3_px	ground_force_3_py	ground_force_3_pz	ground_moment_3_mx	ground_moment_3_my	ground_moment_3_mz	ground_force_4_vx	ground_force_4_vy	ground_force_4_vz	ground_force_4_px	ground_force_4_py	ground_force_4_pz	ground_moment_4_mx	ground_moment_4_my	ground_moment_4_mz
      1.84000000	      0.00000000	     -0.00000000	      0.00000000	      0.00000000	      0.00000000	      0.00000000	      0.00000000	      0.00000000	      0.00000000	      8.31043530	     38.17290878	   -358.62164307	   -326.77125911	  -1091.12337344	      0.00000000	      0.00000000	      0.00000000	   1243.12301286	     -2.36991785	    -32.51520899	   -413.44430542	   -330.75634370	   -747.31258259	      0.00000000	      0.00000000	     -0.00000000	  -3805.74332777	      0.00000000	     -0.00000000	      0.00000000	      0.00000000	      0.00000000	      0.00000000	      0.00000000	      0.00000000	      0.00000000
      1.85000000	      0.00000000	     -0.00000000	      0.00000000	      0.00000000	      0.00000000	      0.00000000	      0.00000000	      0.00000000	      0.00000000	      7.66865349	     37.76631927	   -360.63934326	   -325.94574015	  -1092.37144337	      0.00000000	     -0.00000000	      0.00000000	   1086.59302105	     -2.99101448	    -32.67902348	   -413.79681396	   -329.70771788	   -747.58401970	      0.00000000	      0.00000000	     -0.00000000	  -3777.92127495	      0.00000000	     -0.00000000	      0.00000000	      0.00000000	      0.00000000	      0.00000000	      0.00000000	      0.00000000	      0.00000000
      1.86000000	      0.00000000	     -0.00000000	      0.00000000	      0.00000000	      0.00000000	      0.00000000	      0.00000000	      0.00000000	      0.00000000	      7.69696617	     38.30123520	   -360.30145264	   -324.39621363	  -1092.61091981	      0.00000000	      0.00000000	      0.00000000	   1181.60091464	     -3.99198820	    -32.91907848	   -412.09738159	   -328.71663896	   -747.23897964	      0.00000000	     -0.00000000	     -0.00000000	  -3829.36236489	      0.00000000	     -0.00000000	      0.00000000	      0.00000000	      0.00000000	      0.00000000	      0.00000000	      0.00000000	      0.00000000
      1.87000000	      0.00000000	     -0.00000000	      0.00000000	      0.00000000	      0.00000000	      0.00000000	      0.00000000	      0.00000000	      0.00000000	      8.15788555	     38.20248032	   -360.34149170	   -323.83646562	  -1092.96703262	      0.00000000	      0.00000000	      0.00000000	   1181.24406510	     -4.77637866	    -33.04315907	   -412.04180908	   -327.63483152	   -745.98903726	      0.00000000	      0.00000000	     -0.00000000	  -3783.83904961	      0.00000000	     -0.00000000	      0.00000000	      0.00000000	      0.00000000	      0.00000000	      0.00000000	      0.00000000	      0.00000000
      1.88000000	      0.00000000	     -0.00000000	      0.00000000	      0.00000000	      0.00000000	      0.00000000	      0.00000000	      0.00000000	      0.00000000	      7.73668337	     38.33207321	   -359.50033569	   -323.79899334	  -1092.25739130	      0.00000000	     -0.00000000	      0.00000000	   1178.73039835	     -4.92868050	    -33.68951754	   -412.25048828	   -326.91896240	   -745.97084175	      0.00000000	      0.00000000	     -0.00000000	  -3842.19143146	      0.00000000	     -0.00000000	      0.00000000	      0.00000000	      0.00000000	      0.00000000	      0.00000000	      0.00000000	      0.00000000
      1.89000000	      0.00000000	     -0.00000000	      0.00000000	      0.00000000	      0.00000000	      0.00000000	      0.00000000	      0.00000000	      0.00000000	      7.59857464	     38.08317184	   -358.47766113	   -323.07069861	  -1092.56526844	      0.00000000	     -0.00000000	      0.00000000	   1334.73611821	     -5.29797847	    -33.54761077	   -411.55267334	   -325.88463690	   -746.20228640	      0.00000000	      0.00000000	     -0.00000000	  -3714.82534390	      0.00000000	     -0.00000000	      0.00000000	      0.00000000	      0.00000000	      0.00000000	      0.00000000	      0.00000000	      0.00000000
      1.90000000	      0.00000000	     -0.00000000	      0.00000000	      0.00000000	      0.00000000	      0.00000000	      0.00000000	      0.00000000	      0.00000000	      7.71256256	     38.01826096	   -358.63781738	   -322.41445819	  -1092.50259449	      0.00000000	      0.00000000	     -0.00000000	   1343.50873998	     -4.95271215	    -33.78774600	   -413.14294434	   -325.77760556	   -745.23982133	      0.00000000	      0.00000000	     -0.00000000	  -3797.85873278	      0.00000000	     -0.00000000	      0.00000000	      0.00000000	      0.00000000	      0.00000000	      0.00000000	      0.00000000	      0.00000000
      1.91000000	      0.00000000	     -0.00000000	      0.00000000	      0.00000000	      0.00000000	      0.00000000	      0.00000000	      0.00000000	      0.00000000	      7.60714769	     37.80772400	   -356.93798828	   -321.89778785	  -1092.33755398	      0.00000000	      0.00000000	      0.00000000	   1303.82564328	     -4.51775661	    -34.36360510	   -413.52691650	   -325.27382558	   -745.28007011	      0.00000000	      0.00000000	     -0.00000000	  -3941.88445806	      0.00000000	     -0.00000000	      0.00000000	      0.00000000	      0.00000000	      0.00000000	      0.00000000	      0.00000000	      0.00000000
      1.92000000	      0.00000000	     -0.00000000	      0.00000000	      0.00000000	      0.00000000	      0.00000000	      0.00000000	      0.00000000	      0.00000000	      7.75394344	     37.54066086	   -356.64535522	   -321.48630182	  -1092.83893337	      0.00000000	      0.00000000	      0.00000000	   1281.61871136	     -4.98358976	    -33.96519808	   -414.66787720	   -323.99216758	   -744.97802921	      0.00000000	      0.00000000	     -0.00000000	  -3822.88439555	      0.00000000	     -0.00000000	      0.00000000	      0.00000000	      0.00000000	      0.00000000	      0.00000000	      0.00000000	      0.00000000
      1.93000000	      0.00000000	     -0.00000000	      0.00000000	      0.00000000	      0.00000000	      0.00000000	      0.00000000	      0.00000000	      0.00000000	      7.42161083	     37.11249542	   -356.52151489	   -320.84302902	  -1094.31766916	      0.00000000	      0.00000000	      0.00000000	   1180.63426033	     -5.07266298	    -34.46953920	   -415.23648071	   -323.23139668	   -744.88879417	      0.00000000	      0.00000000	     -0.00000000	  -3923.28150974	      0.00000000	     -0.00000000	      0.00000000	      0.00000000	      0.00000000	      0.00000000	      0.00000000	      0.00000000	      0.00000000
      1.94000000	      0.00000000	     -0.00000000	      0.00000000	      0.00000000	      0.00000000	      0.00000000	      0.00000000	      0.00000000	      0.00000000	      6.77999878	     36.60873032	   -353.46368408	   -320.91315143	  -1091.79141808	      0.00000000	      0.00000000	     -0.00000000	   1094.74201348	     -5.38730495	    -34.67000151	   -416.63256836	   -321.39053405	   -744.26046046	      0.00000000	     -0.00000000	     -0.00000000	  -3888.07094541	      0.00000000	     -0.00000000	      0.00000000	      0.00000000	      0.00000000	      0.00000000	      0.00000000	      0.00000000	      0.00000000
